<svg xmlns="http://www.w3.org/2000/svg" viewBox="0 0 438 61" role="img" aria-labelledby="voice-guidelines-title">
  <title id="voice-guidelines-title">Voice Guidelines</title>
  <g fill="#FFF" fill-rule="evenodd">
    <path d="M14.9 47.75L.1 3.65h9.44l10.77 33.9 10.72-33.9h9.5l-14.86 44.1H14.9zm38.7.88c-9.27 0-16.64-7.24-16.64-16.63 0-9.4 7.37-16.63 16.63-16.63 9.25 0 16.68 7.24 16.68 16.63 0 1.4-.24 3.3-.73 5-2.7 9.22-13.67 23.88-15.96 23.84-.35.07 3.07-12.2 0-12.2zm0-7.94c4.84 0 8.56-3.6 8.56-8.7s-3.72-8.7-8.57-8.7c-4.8 0-8.52 3.6-8.52 8.7s3.72 8.7 8.5 8.7zm24.45-28.23c2.77 0 5.04-2.27 5.04-4.98 0-2.72-2.28-5.05-5.05-5.05-2.7 0-4.98 2.33-4.98 5.04 0 2.7 2.27 4.97 4.98 4.97zm-4.03 35.28h8.12v-31.5h-8.12v31.5zm28.55.88c6.18 0 11.53-3.27 14.24-8.2l-7.05-4.02c-1.26 2.6-3.96 4.17-7.24 4.17-4.84 0-8.43-3.6-8.43-8.57 0-5.04 3.6-8.63 8.44-8.63 3.22 0 5.93 1.64 7.2 4.22l6.98-4.1c-2.58-4.86-7.93-8.13-14.1-8.13C93 15.37 85.93 22.6 85.93 32c0 9.4 7.06 16.63 16.63 16.63zm23.64-13.3c1.15 4.17 4.6 5.93 8.9 5.93 3.15 0 5.67-1.32 7.05-3.15l6.55 3.8c-2.96 4.27-7.68 6.73-13.73 6.73-10.58 0-17.26-7.24-17.26-16.63 0-9.4 6.75-16.63 16.64-16.63 9.32 0 15.94 7.37 15.94 16.63 0 1.2-.13 2.27-.32 3.34H126.2zm-.1-6.3h16.05c-1-4.53-4.4-6.35-7.8-6.35-4.36 0-7.32 2.33-8.26 6.36zM202.92 26.2h-22.1v3.15h18.7c-.7 8.25-7.18 14.87-17.9 14.87-11.83 0-19.83-8.7-19.83-19.53 0-10.85 8-19.54 19.58-19.54 6.93 0 13.1 3.65 16 9.2l2.96-1.77c-3.65-6.37-10.77-10.66-18.96-10.66-13.42 0-22.93 10.15-22.93 22.75s9.5 22.73 23.18 22.73c13.17 0 21.3-8.88 21.3-19.53v-1.7zm28.62-10.96v16.63c0 8.5-4.85 12.54-11.02 12.54-5.92 0-9.26-3.77-9.26-9.57v-19.6h-3.22v19.6c0 7.62 4.73 12.6 12.23 12.6 4.85 0 8.88-2.02 11.27-6.68v6h3.15v-31.5h-3.16zm12.43-7.63c1.4 0 2.52-1.12 2.52-2.5 0-1.33-1.14-2.46-2.53-2.46-1.4 0-2.52 1.13-2.52 2.45 0 1.38 1.13 2.5 2.52 2.5zm-1.58 39.14h3.14v-31.5h-3.15v31.5zm38.63-44.1h3.15v44.1h-3.15v-7.3c-2.58 4.84-7.43 8-13.55 8-9 0-16.3-7.13-16.3-16.45 0-9.34 7.3-16.46 16.3-16.46 6.12 0 10.97 3.15 13.55 8V2.65zM267.67 44.4c7.5 0 13.36-5.92 13.36-13.4 0-7.5-5.86-13.43-13.36-13.43-7.5 0-13.35 5.92-13.35 13.42 0 7.48 5.86 13.4 13.35 13.4zm38.4-29.86c9.56 0 15.55 7.94 15.55 16.57 0 .52-.07 1.02-.07 1.53h-28.53c.75 7.1 6.17 11.78 13.35 11.78 5.17 0 9.07-2.4 10.9-5.73l2.77 1.64c-2.58 4.3-7.5 7.13-13.73 7.13-9.7 0-16.56-6.93-16.56-16.44 0-9.27 6.68-16.46 16.32-16.46zm0 3.03c-7.2 0-12.42 4.98-13.05 11.97h25.32c-.7-7.7-6.1-11.97-12.28-11.97zm20.92 29.17h3.14v-46H327v46zM339.4 7.6c1.38 0 2.52-1.12 2.52-2.5 0-1.33-1.14-2.46-2.52-2.46-1.4 0-2.52 1.13-2.52 2.45 0 1.38 1.13 2.5 2.52 2.5zm-1.58 39.14H341v-31.5h-3.16v31.5zm25.28-32.2c-4.85 0-8.88 2.02-11.28 6.68v-5.98h-3.15v31.5h3.14V30.1c0-8.5 4.85-12.53 11.03-12.53 5.92 0 9.26 3.78 9.26 9.57v19.6h3.2v-19.6c0-7.62-4.7-12.6-12.2-12.6zm33.28 0c9.58 0 15.56 7.94 15.56 16.57 0 .52-.06 1.02-.06 1.53h-28.54c.75 7.1 6.17 11.78 13.35 11.78 5.18 0 9.1-2.4 10.9-5.73l2.8 1.64c-2.6 4.3-7.5 7.13-13.75 7.13-9.7 0-16.57-6.93-16.57-16.44 0-9.27 6.68-16.46 16.32-16.46zm0 3.03c-7.18 0-12.4 4.98-13.04 11.97h25.32c-.7-7.7-6.1-11.97-12.28-11.97zm21.8 5.92c0-3.8 3.48-5.93 7.57-5.93 3.47 0 6.74 1.5 8.07 4.8l2.64-1.53c-1.7-3.84-5.6-6.3-10.7-6.3-6.43 0-10.72 3.97-10.72 8.95 0 11.33 19.1 6.42 19.1 14.98 0 3.97-3.72 5.93-8.13 5.93-4.73 0-8.13-2.14-9.27-5.54l-2.7 1.58c1.5 4.03 5.67 7 11.97 7 6.74 0 11.27-3.8 11.27-8.96 0-11.52-19.1-6.55-19.1-15z"/>
  </g>
</svg>
