<?xml version="1.0" encoding="UTF-8"?>
<svg width="420px" height="63px" viewBox="0 0 420 63" version="1.1" xmlns="http://www.w3.org/2000/svg" xmlns:xlink="http://www.w3.org/1999/xlink">
    <!-- Generator: Sketch 50.2 (55047) - http://www.bohemiancoding.com/sketch -->
    <title>voice-principles-heading</title>
    <desc>Created with Sketch.</desc>
    <defs>
        <path d="M20.15,14.490001 C27.962,14.490001 33.666,20.256001 33.666,27.944001 C33.666,35.570001 27.962,41.336001 20.15,41.336001 L8.68,41.336001 L8.68,57.890001 L5.394,57.890001 L5.394,14.490001 L20.15,14.490001 Z M20.15,38.236001 C26.102,38.236001 30.38,33.896001 30.38,27.944001 C30.38,21.930001 26.102,17.590001 20.15,17.590001 L8.68,17.590001 L8.68,38.236001 L20.15,38.236001 Z M43.648,32.966001 C45.756,28.068001 49.786,26.456001 54.002,26.456001 L54.002,29.432001 C48.67,29.432001 43.648,32.718001 43.648,40.654001 L43.648,57.890001 L40.548,57.890001 L40.548,26.890001 L43.648,26.890001 L43.648,32.966001 Z M61.814,19.388001 C60.45,19.388001 59.334,18.272001 59.334,16.908001 C59.334,15.606001 60.45,14.490001 61.814,14.490001 C63.178,14.490001 64.294,15.606001 64.294,16.908001 C64.294,18.272001 63.178,19.388001 61.814,19.388001 Z M60.264,57.890001 L60.264,26.890001 L63.364,26.890001 L63.364,57.890001 L60.264,57.890001 Z M87.11,26.208001 C94.488,26.208001 99.138,31.106001 99.138,38.608001 L99.138,57.890001 L95.976,57.890001 L95.976,38.608001 C95.976,32.904001 92.69,29.184001 86.862,29.184001 C80.786,29.184001 76.012,33.152001 76.012,41.522001 L76.012,57.890001 L72.912,57.890001 L72.912,26.890001 L76.012,26.890001 L76.012,32.780001 C78.368,28.192001 82.336,26.208001 87.11,26.208001 Z M122.078,58.572001 C112.716,58.572001 105.772,51.566001 105.772,42.390001 C105.772,33.214001 112.716,26.208001 122.078,26.208001 C128.154,26.208001 133.362,29.308001 135.594,34.144001 L133.052,35.632001 C131.254,31.726001 127.038,29.184001 122.078,29.184001 C114.576,29.184001 108.934,35.012001 108.934,42.390001 C108.934,49.768001 114.576,55.596001 122.078,55.596001 C127.1,55.596001 131.192,52.992001 133.238,49.148001 L135.842,50.698001 C133.362,55.472001 128.154,58.572001 122.078,58.572001 Z M144.212,19.388001 C142.848,19.388001 141.732,18.272001 141.732,16.908001 C141.732,15.606001 142.848,14.490001 144.212,14.490001 C145.576,14.490001 146.692,15.606001 146.692,16.908001 C146.692,18.272001 145.576,19.388001 144.212,19.388001 Z M142.662,57.890001 L142.662,26.890001 L145.762,26.890001 L145.762,57.890001 L142.662,57.890001 Z M171.74,26.208001 C180.606,26.208001 187.798,33.214001 187.798,42.390001 C187.798,51.566001 180.606,58.572001 171.74,58.572001 C165.726,58.572001 160.952,55.472001 158.41,50.698001 L158.41,70.290001 L155.31,70.290001 L155.31,26.890001 L158.41,26.890001 L158.41,34.082001 C160.952,29.308001 165.726,26.208001 171.74,26.208001 Z M171.554,55.596001 C178.932,55.596001 184.698,49.768001 184.698,42.390001 C184.698,35.012001 178.932,29.184001 171.554,29.184001 C164.176,29.184001 158.41,35.012001 158.41,42.390001 C158.41,49.768001 164.176,55.596001 171.554,55.596001 Z M195.3,57.890001 L195.3,12.630001 L198.4,12.630001 L198.4,57.890001 L195.3,57.890001 Z M221.898,26.208001 C231.322,26.208001 237.212,34.020001 237.212,42.514001 C237.212,43.010001 237.15,43.506001 237.15,44.002001 L209.064,44.002001 C209.808,51.008001 215.14,55.596001 222.208,55.596001 C227.292,55.596001 231.136,53.240001 232.934,49.954001 L235.662,51.566001 C233.12,55.782001 228.284,58.572001 222.146,58.572001 C212.598,58.572001 205.84,51.752001 205.84,42.390001 C205.84,33.276001 212.412,26.208001 221.898,26.208001 Z M221.898,29.184001 C214.83,29.184001 209.684,34.082001 209.064,40.964001 L233.988,40.964001 C233.306,33.400001 227.974,29.184001 221.898,29.184001 Z M245.334,35.012001 C245.334,43.320001 264.12,38.422001 264.12,49.768001 C264.12,54.852001 259.656,58.572001 253.022,58.572001 C246.822,58.572001 242.73,55.658001 241.242,51.690001 L243.908,50.140001 C245.024,53.488001 248.372,55.596001 253.022,55.596001 C257.362,55.596001 261.02,53.674001 261.02,49.768001 C261.02,41.336001 242.234,46.172001 242.234,35.012001 C242.234,30.114001 246.45,26.208001 252.774,26.208001 C257.796,26.208001 261.64,28.626001 263.314,32.408001 L260.71,33.896001 C259.408,30.672001 256.184,29.184001 252.774,29.184001 C248.744,29.184001 245.334,31.292001 245.334,35.012001 Z" id="path-1"></path>
    </defs>
    <g id="Page-1" stroke="none" stroke-width="1" fill="none" fill-rule="evenodd">
        <g id="voice-principles-heading" transform="translate(0.000000, -12.000000)">
            <path d="M14.805,58.406999 L0,14.306999 L9.45,14.306999 L20.223,48.200999 L30.933,14.306999 L40.446,14.306999 L25.578,58.406999 L14.805,58.406999 Z M53.503,59.288999 C44.2420002,59.2913294 36.871,52.043999 36.871,42.656999 C36.871,33.269999 44.242,26.024999 53.503,26.024999 C62.764,26.024999 70.198,33.2699993 70.198,42.656999 C70.198,44.0688389 69.9578591,45.96146 69.4658657,47.6438018 C66.7665919,56.8738063 52.7908588,74.5324828 50.4996182,74.5017256 C50.1660916,74.5651106 56.5805508,59.2882246 53.503,59.288999 Z M53.503,51.350999 C58.354,51.350999 62.071,47.759999 62.071,42.656999 C62.071,37.553999 58.354,33.962999 53.503,33.962999 C48.715,33.962999 44.998,37.553999 44.998,42.656999 C44.998,47.759999 48.715,51.350999 53.503,51.350999 Z M77.963,23.126999 C80.735,23.126999 83.003,20.858999 83.003,18.149999 C83.003,15.440999 80.735,13.109999 77.963,13.109999 C75.254,13.109999 72.986,15.440999 72.986,18.149999 C72.986,20.858999 75.254,23.126999 77.963,23.126999 Z M73.931,58.406999 L82.058,58.406999 L82.058,26.906999 L73.931,26.906999 L73.931,58.406999 Z M102.486,59.288999 C108.66,59.288999 114.015,56.012999 116.724,51.098999 L109.668,47.066999 C108.408,49.649999 105.699,51.224999 102.423,51.224999 C97.572,51.224999 93.981,47.633999 93.981,42.656999 C93.981,37.616999 97.572,34.025999 102.423,34.025999 C105.636,34.025999 108.345,35.663999 109.605,38.246999 L116.598,34.151999 C114.015,29.300999 108.66,26.024999 102.486,26.024999 C92.91,26.024999 85.854,33.269999 85.854,42.656999 C85.854,52.043999 92.91,59.288999 102.486,59.288999 Z M126.127,45.995999 C127.261,50.153999 130.726,51.917999 135.01,51.917999 C138.16,51.917999 140.68,50.594999 142.066,48.767999 L148.618,52.547999 C145.657,56.831999 140.932,59.288999 134.884,59.288999 C124.3,59.288999 117.622,52.043999 117.622,42.656999 C117.622,33.269999 124.363,26.024999 134.254,26.024999 C143.578,26.024999 150.193,33.395999 150.193,42.656999 C150.193,43.853999 150.067,44.924999 149.878,45.995999 L126.127,45.995999 Z M126.001,39.695999 L142.066,39.695999 C141.058,35.159999 137.656,33.332999 134.254,33.332999 C129.907,33.332999 126.946,35.663999 126.001,39.695999 Z" id="Voice" fill="#FFFFFF" fill-rule="nonzero"></path>
            <g id="Principles" transform="translate(155.000000, 0.109999)">
                <g>
                    <use fill="#000000" xlink:href="#path-1"></use>
                    <use fill="#FFFFFF" xlink:href="#path-1"></use>
                </g>
            </g>
        </g>
    </g>
</svg>