<?xml version="1.0" encoding="UTF-8"?>
<svg width="420px" height="63px" viewBox="0 0 420 63" version="1.1" xmlns="http://www.w3.org/2000/svg" xmlns:xlink="http://www.w3.org/1999/xlink">
    <!-- Generator: Sketch 50.2 (55047) - http://www.bohemiancoding.com/sketch -->
    <title>voice-principles-heading</title>
    <desc>Created with Sketch.</desc>
    <defs></defs>
    <g id="Page-1" stroke="none" stroke-width="1" fill="none" fill-rule="evenodd">
        <g id="voice-principles-heading" fill="#FFFFFF" fill-rule="nonzero">
            <path d="M14.805,46.406999 L0,2.306999 L9.45,2.306999 L20.223,36.200999 L30.933,2.306999 L40.446,2.306999 L25.578,46.406999 L14.805,46.406999 Z M53.503,47.288999 C44.2420002,47.2913294 36.871,40.043999 36.871,30.656999 C36.871,21.269999 44.242,14.024999 53.503,14.024999 C62.764,14.024999 70.198,21.2699993 70.198,30.656999 C70.198,32.0688389 69.9578591,33.96146 69.4658657,35.6438018 C66.7665919,44.8738063 52.7908588,62.5324828 50.4996182,62.5017256 C50.1660916,62.5651106 56.5805508,47.2882246 53.503,47.288999 Z M53.503,39.350999 C58.354,39.350999 62.071,35.759999 62.071,30.656999 C62.071,25.553999 58.354,21.962999 53.503,21.962999 C48.715,21.962999 44.998,25.553999 44.998,30.656999 C44.998,35.759999 48.715,39.350999 53.503,39.350999 Z M77.963,11.126999 C80.735,11.126999 83.003,8.858999 83.003,6.149999 C83.003,3.440999 80.735,1.109999 77.963,1.109999 C75.254,1.109999 72.986,3.440999 72.986,6.149999 C72.986,8.858999 75.254,11.126999 77.963,11.126999 Z M73.931,46.406999 L82.058,46.406999 L82.058,14.906999 L73.931,14.906999 L73.931,46.406999 Z M102.486,47.288999 C108.66,47.288999 114.015,44.012999 116.724,39.098999 L109.668,35.066999 C108.408,37.649999 105.699,39.224999 102.423,39.224999 C97.572,39.224999 93.981,35.633999 93.981,30.656999 C93.981,25.616999 97.572,22.025999 102.423,22.025999 C105.636,22.025999 108.345,23.663999 109.605,26.246999 L116.598,22.151999 C114.015,17.300999 108.66,14.024999 102.486,14.024999 C92.91,14.024999 85.854,21.269999 85.854,30.656999 C85.854,40.043999 92.91,47.288999 102.486,47.288999 Z M126.127,33.995999 C127.261,38.153999 130.726,39.917999 135.01,39.917999 C138.16,39.917999 140.68,38.594999 142.066,36.767999 L148.618,40.547999 C145.657,44.831999 140.932,47.288999 134.884,47.288999 C124.3,47.288999 117.622,40.043999 117.622,30.656999 C117.622,21.269999 124.363,14.024999 134.254,14.024999 C143.578,14.024999 150.193,21.395999 150.193,30.656999 C150.193,31.853999 150.067,32.924999 149.878,33.995999 L126.127,33.995999 Z M126.001,27.695999 L142.066,27.695999 C141.058,23.159999 137.656,21.332999 134.254,21.332999 C129.907,21.332999 126.946,23.663999 126.001,27.695999 Z" id="Voice"></path>
            <g id="Principles" transform="translate(160.000000, 0.109999)">
                <g id="Group">
                    <g id="path-1-link">
                        <path d="M15.15,2.490001 C22.962,2.490001 28.666,8.256001 28.666,15.944001 C28.666,23.570001 22.962,29.336001 15.15,29.336001 L3.68,29.336001 L3.68,45.890001 L0.394,45.890001 L0.394,2.490001 L15.15,2.490001 Z M15.15,26.236001 C21.102,26.236001 25.38,21.896001 25.38,15.944001 C25.38,9.930001 21.102,5.590001 15.15,5.590001 L3.68,5.590001 L3.68,26.236001 L15.15,26.236001 Z M38.648,20.966001 C40.756,16.068001 44.786,14.456001 49.002,14.456001 L49.002,17.432001 C43.67,17.432001 38.648,20.718001 38.648,28.654001 L38.648,45.890001 L35.548,45.890001 L35.548,14.890001 L38.648,14.890001 L38.648,20.966001 Z M56.814,7.388001 C55.45,7.388001 54.334,6.272001 54.334,4.908001 C54.334,3.606001 55.45,2.490001 56.814,2.490001 C58.178,2.490001 59.294,3.606001 59.294,4.908001 C59.294,6.272001 58.178,7.388001 56.814,7.388001 Z M55.264,45.890001 L55.264,14.890001 L58.364,14.890001 L58.364,45.890001 L55.264,45.890001 Z M82.11,14.208001 C89.488,14.208001 94.138,19.106001 94.138,26.608001 L94.138,45.890001 L90.976,45.890001 L90.976,26.608001 C90.976,20.904001 87.69,17.184001 81.862,17.184001 C75.786,17.184001 71.012,21.152001 71.012,29.522001 L71.012,45.890001 L67.912,45.890001 L67.912,14.890001 L71.012,14.890001 L71.012,20.780001 C73.368,16.192001 77.336,14.208001 82.11,14.208001 Z M117.078,46.572001 C107.716,46.572001 100.772,39.566001 100.772,30.390001 C100.772,21.214001 107.716,14.208001 117.078,14.208001 C123.154,14.208001 128.362,17.308001 130.594,22.144001 L128.052,23.632001 C126.254,19.726001 122.038,17.184001 117.078,17.184001 C109.576,17.184001 103.934,23.012001 103.934,30.390001 C103.934,37.768001 109.576,43.596001 117.078,43.596001 C122.1,43.596001 126.192,40.992001 128.238,37.148001 L130.842,38.698001 C128.362,43.472001 123.154,46.572001 117.078,46.572001 Z M139.212,7.388001 C137.848,7.388001 136.732,6.272001 136.732,4.908001 C136.732,3.606001 137.848,2.490001 139.212,2.490001 C140.576,2.490001 141.692,3.606001 141.692,4.908001 C141.692,6.272001 140.576,7.388001 139.212,7.388001 Z M137.662,45.890001 L137.662,14.890001 L140.762,14.890001 L140.762,45.890001 L137.662,45.890001 Z M166.74,14.208001 C175.606,14.208001 182.798,21.214001 182.798,30.390001 C182.798,39.566001 175.606,46.572001 166.74,46.572001 C160.726,46.572001 155.952,43.472001 153.41,38.698001 L153.41,58.290001 L150.31,58.290001 L150.31,14.890001 L153.41,14.890001 L153.41,22.082001 C155.952,17.308001 160.726,14.208001 166.74,14.208001 Z M166.554,43.596001 C173.932,43.596001 179.698,37.768001 179.698,30.390001 C179.698,23.012001 173.932,17.184001 166.554,17.184001 C159.176,17.184001 153.41,23.012001 153.41,30.390001 C153.41,37.768001 159.176,43.596001 166.554,43.596001 Z M190.3,45.890001 L190.3,0.630001 L193.4,0.630001 L193.4,45.890001 L190.3,45.890001 Z M216.898,14.208001 C226.322,14.208001 232.212,22.020001 232.212,30.514001 C232.212,31.010001 232.15,31.506001 232.15,32.002001 L204.064,32.002001 C204.808,39.008001 210.14,43.596001 217.208,43.596001 C222.292,43.596001 226.136,41.240001 227.934,37.954001 L230.662,39.566001 C228.12,43.782001 223.284,46.572001 217.146,46.572001 C207.598,46.572001 200.84,39.752001 200.84,30.390001 C200.84,21.276001 207.412,14.208001 216.898,14.208001 Z M216.898,17.184001 C209.83,17.184001 204.684,22.082001 204.064,28.964001 L228.988,28.964001 C228.306,21.400001 222.974,17.184001 216.898,17.184001 Z M240.334,23.012001 C240.334,31.320001 259.12,26.422001 259.12,37.768001 C259.12,42.852001 254.656,46.572001 248.022,46.572001 C241.822,46.572001 237.73,43.658001 236.242,39.690001 L238.908,38.140001 C240.024,41.488001 243.372,43.596001 248.022,43.596001 C252.362,43.596001 256.02,41.674001 256.02,37.768001 C256.02,29.336001 237.234,34.172001 237.234,23.012001 C237.234,18.114001 241.45,14.208001 247.774,14.208001 C252.796,14.208001 256.64,16.626001 258.314,20.408001 L255.71,21.896001 C254.408,18.672001 251.184,17.184001 247.774,17.184001 C243.744,17.184001 240.334,19.292001 240.334,23.012001 Z" id="path-1"></path>
                    </g>
                </g>
            </g>
        </g>
    </g>
</svg>