<?xml version="1.0" encoding="UTF-8"?>
<svg width="421px" height="63px" viewBox="0 0 421 63" version="1.1" xmlns="http://www.w3.org/2000/svg" xmlns:xlink="http://www.w3.org/1999/xlink">
    <!-- Generator: Sketch 50.2 (55047) - http://www.bohemiancoding.com/sketch -->
    <title>logo</title>
    <desc>Created with Sketch.</desc>
    <defs></defs>
    <g id="Page-1" stroke="none" stroke-width="1" fill="none" fill-rule="evenodd">
        <g id="large" transform="translate(-551.000000, -104.000000)" fill="#FFFFFF">
            <g id="header">
                <g id="logo" transform="translate(551.000000, 31.109999)">
                    <g transform="translate(0.000000, 61.000000)">
                        <path d="M14.805,58.297 L0,14.197 L9.45,14.197 L20.223,48.091 L30.933,14.197 L40.446,14.197 L25.578,58.297 L14.805,58.297 Z M53.503,59.179 C44.2420002,59.1813304 36.871,51.934 36.871,42.547 C36.871,33.16 44.242,25.915 53.503,25.915 C62.764,25.915 70.198,33.1600003 70.198,42.547 C70.198,43.9588399 69.9578591,45.851461 69.4658657,47.5338028 C66.7665919,56.7638073 52.7908588,74.4224838 50.4996182,74.3917266 C50.1660916,74.4551116 56.5805508,59.1782256 53.503,59.179 Z M53.503,51.241 C58.354,51.241 62.071,47.65 62.071,42.547 C62.071,37.444 58.354,33.853 53.503,33.853 C48.715,33.853 44.998,37.444 44.998,42.547 C44.998,47.65 48.715,51.241 53.503,51.241 Z M77.963,23.017 C80.735,23.017 83.003,20.749 83.003,18.04 C83.003,15.331 80.735,13 77.963,13 C75.254,13 72.986,15.331 72.986,18.04 C72.986,20.749 75.254,23.017 77.963,23.017 Z M73.931,58.297 L82.058,58.297 L82.058,26.797 L73.931,26.797 L73.931,58.297 Z M102.486,59.179 C108.66,59.179 114.015,55.903 116.724,50.989 L109.668,46.957 C108.408,49.54 105.699,51.115 102.423,51.115 C97.572,51.115 93.981,47.524 93.981,42.547 C93.981,37.507 97.572,33.916 102.423,33.916 C105.636,33.916 108.345,35.554 109.605,38.137 L116.598,34.042 C114.015,29.191 108.66,25.915 102.486,25.915 C92.91,25.915 85.854,33.16 85.854,42.547 C85.854,51.934 92.91,59.179 102.486,59.179 Z M126.127,45.886 C127.261,50.044 130.726,51.808 135.01,51.808 C138.16,51.808 140.68,50.485 142.066,48.658 L148.618,52.438 C145.657,56.722 140.932,59.179 134.884,59.179 C124.3,59.179 117.622,51.934 117.622,42.547 C117.622,33.16 124.363,25.915 134.254,25.915 C143.578,25.915 150.193,33.286 150.193,42.547 C150.193,43.744 150.067,44.815 149.878,45.886 L126.127,45.886 Z M126.001,39.586 L142.066,39.586 C141.058,35.05 137.656,33.223 134.254,33.223 C129.907,33.223 126.946,35.554 126.001,39.586 Z" id="Voice"></path>
                        <text id="Principles" font-family="Gilroy-Light, Gilroy" font-size="62" font-weight="300">
                            <tspan x="155" y="57.890001">Principles</tspan>
                        </text>
                    </g>
                </g>
            </g>
        </g>
    </g>
</svg>